<svg xmlns="http://www.w3.org/2000/svg" viewBox="0 0 48 96">
  <path d="M24 88c9 0 13-5 13-13 0-6-2-10-5-15-2-5-3-11-4-19-1-10-2-20-3-28-1 8-2 18-3 28-1 8-2 14-4 19-3 5-5 9-5 15 0 8 4 13 13 13Z" fill="#fffdf8" stroke="#d8deea" stroke-width="2"/>
  <path d="M16 84c1-4 3-6 6-6 1.5 0 3 .7 4 2 1-1.3 2.5-2 4-2 3 0 5 2 6 6" fill="none" stroke="#eee6d7" stroke-width="1.8"/>
  <path d="M18 54c0-7 1-15 2-23m8 23c0-7-1-15-2-23" stroke="#efe7da" stroke-width="1.4" fill="none" stroke-linecap="round"/>
</svg>
