<svg xmlns="http://www.w3.org/2000/svg" viewBox="0 0 48 96">
  <path d="M24 88c11 0 16-5 16-13 0-6-3-10-6-15-3-5-4-10-5-17-1-10-2-18-5-31-3 13-4 21-5 31-1 7-2 12-5 17-3 5-6 9-6 15 0 8 5 13 16 13Z" fill="#fffdf8" stroke="#d8deea" stroke-width="2"/>
  <path d="M13 83c1-4 3-6 5-6 1.6 0 3 .8 4 2 1-.9 2.2-1.3 3.5-1.3 1.4 0 2.7.4 3.7 1.3 1-1.2 2.3-2 4-2 2 0 4 2 5 6" fill="none" stroke="#eee6d7" stroke-width="1.8"/>
  <path d="M16 73c1-5 2-11 3-18m10 18c-1-5-2-11-3-18" stroke="#efe7da" stroke-width="1.4" fill="none" stroke-linecap="round"/>
</svg>
