<svg xmlns="http://www.w3.org/2000/svg" viewBox="0 0 48 96">
  <path d="M24 10c-8 0-12 5-12 12 0 6 2 10 4 15 2 5 3 11 4 18 2 10 3 19 4 27 1-8 2-17 4-27 1-7 2-13 4-18 2-5 4-9 4-15 0-7-4-12-12-12Z" fill="#fffdf8" stroke="#d8deea" stroke-width="2"/>
  <path d="M17 12c1 3 3 5 5.5 5 1.3 0 2.6-.5 3.5-1.5.9 1 2.2 1.5 3.5 1.5 2.5 0 4.5-2 5.5-5" fill="none" stroke="#eee6d7" stroke-width="1.8"/>
  <path d="M19 21c0 6 1 13 2 21m7-21c0 6-1 13-2 21" stroke="#efe7da" stroke-width="1.4" fill="none" stroke-linecap="round"/>
</svg>
